<?xml version="1.0" standalone="no"?>
<!DOCTYPE svg PUBLIC "-//W3C//DTD SVG 20010904//EN"
 "http://www.w3.org/TR/2001/REC-SVG-20010904/DTD/svg10.dtd">
<svg version="1.0" xmlns="http://www.w3.org/2000/svg"
 width="561.000000pt" height="561.000000pt" viewBox="0 0 561.000000 561.000000"
 preserveAspectRatio="xMidYMid meet">
<metadata>
Created by potrace 1.14, written by Peter Selinger 2001-2017
</metadata>
<g transform="translate(0.000000,561.000000) scale(0.100000,-0.100000)"
fill="#000000" stroke="none">
<path d="M3969 4508 c-349 -348 -657 -660 -685 -693 -158 -186 -284 -431 -348
-677 -23 -89 -29 -121 -46 -253 -8 -64 -6 -367 3 -381 2 -5 8 -36 12 -69 3
-32 8 -62 10 -65 2 -4 7 -20 9 -37 42 -235 213 -567 397 -766 l62 -69 640 639
c713 712 750 753 864 958 69 123 150 330 169 430 2 11 6 31 9 45 24 106 36
212 37 325 2 86 -10 273 -17 285 -2 3 -6 26 -10 50 -17 126 -88 335 -160 480
-61 120 -190 303 -286 403 l-26 28 -634 -633z"/>
<path d="M957 5078 c-76 -86 -95 -109 -146 -183 -162 -233 -260 -499 -297
-805 -5 -46 -6 -309 0 -336 2 -11 7 -47 10 -80 15 -138 89 -371 171 -534 43
-86 136 -230 196 -305 18 -22 326 -333 683 -692 l651 -652 45 47 c177 186 316
434 395 707 73 253 81 589 19 844 -16 70 -50 182 -64 216 -62 151 -124 268
-196 373 -36 51 -77 107 -91 125 -34 40 -1316 1326 -1323 1327 -3 0 -27 -24
-53 -52z"/>
<path d="M4115 1980 l-608 -608 441 -441 c242 -242 443 -441 447 -441 15 0
121 121 215 246 55 73 100 134 100 137 0 3 19 36 42 73 165 271 256 587 256
884 0 156 -15 256 -58 381 -48 139 -103 234 -196 340 l-32 36 -607 -607z"/>
<path d="M845 2534 c-112 -130 -196 -311 -225 -481 -6 -35 -12 -75 -15 -90 -6
-34 -7 -238 -1 -273 2 -14 7 -50 11 -80 22 -193 120 -464 243 -673 76 -130
229 -332 315 -415 l44 -43 254 255 c140 140 339 340 443 444 l188 190 -433
432 c-239 237 -513 510 -609 606 l-175 174 -40 -46z"/>
</g>
</svg>
